<svg width="460" height="120" viewBox="0 0 460 120" fill="none" xmlns="http://www.w3.org/2000/svg" role="img" aria-label="Meshwar مشوار">
  <defs>
    <linearGradient id="wg" x1="12" y1="12" x2="108" y2="108" gradientUnits="userSpaceOnUse">
      <stop stop-color="#7C5CFF"/><stop offset="0.55" stop-color="#9D7BFF"/><stop offset="1" stop-color="#B79BFF"/>
    </linearGradient>
  </defs>

  <!-- mark (Concept A, refined) -->
  <g transform="translate(12,12)">
    <rect width="96" height="96" rx="26" fill="url(#wg)"/>
    <path d="M28 70 C 28 56, 47 60, 48 48 C 49 36, 39 33, 48 25"
          stroke="#fff" stroke-width="5.5" stroke-linecap="round" fill="none" stroke-dasharray="0.1 8"/>
    <circle cx="28" cy="70" r="6.5" fill="#fff"/><circle cx="28" cy="70" r="2.6" fill="#7C5CFF"/>
    <path d="M67 17 C 58.5 17, 54.5 24, 54.5 30.5 C 54.5 39, 67 48, 67 48 C 67 48, 79.5 39, 79.5 30.5 C 79.5 24, 75.5 17, 67 17 Z" fill="#fff"/>
    <circle cx="67" cy="30" r="4.8" fill="#7C5CFF"/>
  </g>

  <!-- wordmark -->
  <text x="128" y="60" font-family="system-ui, -apple-system, Segoe UI, sans-serif" font-size="46" font-weight="800" letter-spacing="-1.2" fill="#1A1730">Meshwar</text>
  <text x="129" y="94" font-family="system-ui, -apple-system, sans-serif" font-size="29" font-weight="700" fill="#8B86A3" direction="rtl">مشوار</text>
</svg>
